<?xml version="1.0" encoding="UTF-8" standalone="no"?>
<!DOCTYPE svg PUBLIC "-//W3C//DTD SVG 1.1//EN" "http://www.w3.org/Graphics/SVG/1.1/DTD/svg11.dtd">
<svg width="100%" height="100%" viewBox="0 0 1208 206" version="1.1" xmlns="http://www.w3.org/2000/svg" xmlns:xlink="http://www.w3.org/1999/xlink" xml:space="preserve" xmlns:serif="http://www.serif.com/" style="fill-rule:evenodd;clip-rule:evenodd;stroke-linejoin:round;stroke-miterlimit:2;">
    <g transform="matrix(1,0,0,1,495.469,52.4961)">
        <path d="M0,0.072L17.105,0.072L25.363,8.33L29.492,13.049L35.391,18.947L39.52,23.666L46.008,30.154L50.137,34.873L56.625,41.361L60.754,46.08L66.652,51.979L70.781,56.697L77.27,63.186L81.398,67.904L84.348,70.854L84.348,7.74L82.578,4.201L82.578,3.021L80.219,1.842L80.219,0.072L101.453,0.072L100.863,2.432L97.914,5.971L97.324,7.74L96.734,96.807L95.555,97.986L92.605,97.986L84.938,90.318L80.809,85.6L73.73,78.521L69.602,73.803L64.293,68.494L60.164,63.775L54.266,57.877L50.137,53.158L43.648,46.67L39.52,41.951L33.031,35.463L28.902,30.744L22.414,24.256L18.285,19.537L17.105,18.357L17.105,90.318L18.875,93.857L18.875,95.037L20.645,95.627L21.234,97.396L20.645,97.986L0,97.986L0.59,95.627L3.539,92.088L4.129,90.318L4.129,7.74L2.359,3.611L0,1.842L0,0.072Z" style="fill:white;fill-rule:nonzero;"/>
    </g>
    <g transform="matrix(1,0,0,1,971.473,130.355)">
        <path d="M0,0.072L186.391,0.072L188.16,18.947L188.75,28.975L187.57,30.154L-1.77,30.154L-2.359,29.564L-2.359,23.666L-0.59,1.842L0,0.072ZM27.133,4.791L22.414,6.561L18.285,10.689L17.105,13.639L17.105,25.436L41.289,25.436L41.289,13.639L38.34,8.92L34.801,5.971L30.672,4.791L27.133,4.791ZM59.574,4.791L54.855,6.561L50.727,10.689L49.547,13.639L49.547,25.436L73.73,25.436L73.73,16.588L72.551,11.869L69.602,7.74L65.473,5.381L59.574,4.791ZM91.426,4.791L86.707,6.561L83.758,8.92L81.398,13.639L81.398,25.436L104.992,25.436L104.992,13.639L102.043,8.33L97.324,5.381L91.426,4.791ZM122.688,4.791L118.559,6.561L115.02,9.51L113.25,12.459L112.66,15.408L112.66,25.436L136.844,25.436L136.844,13.639L133.895,8.92L130.355,5.971L126.227,4.791L122.688,4.791ZM155.129,4.791L150.41,6.561L147.461,8.92L145.102,13.049L144.512,15.998L144.512,25.436L169.285,25.436L169.285,14.229L166.926,9.51L162.797,5.971L158.668,4.791L155.129,4.791Z" style="fill:white;fill-rule:nonzero;"/>
    </g>
    <g transform="matrix(1,0,0,1,611.668,52.4961)">
        <path d="M0,0.072L35.391,0.072L45.418,2.432L54.855,6.561L62.523,11.869L67.832,17.178L71.961,23.076L75.5,30.154L77.859,39.002L78.449,44.311L78.449,53.158L76.68,62.596L72.551,72.623L68.422,79.111L63.113,85.6L57.215,90.318L48.367,95.037L40.699,97.396L37.16,97.986L0,97.986L0.59,95.627L3.539,92.088L4.129,90.318L4.129,7.74L2.359,4.201L2.359,3.021L0,1.842L0,0.072ZM16.516,9.51L16.516,87.369L17.695,88.549L34.211,88.549L42.469,86.779L49.547,83.83L54.855,79.701L58.984,75.572L62.523,69.674L65.473,60.236L66.652,50.799L66.063,40.771L63.703,31.924L59.574,23.666L53.676,17.178L47.777,13.639L42.469,11.279L33.621,9.51L16.516,9.51Z" style="fill:white;fill-rule:nonzero;"/>
    </g>
    <g transform="matrix(1,0,0,1,700.734,52.4961)">
        <path d="M0,0.072L37.75,0.072L46.598,1.842L54.855,5.971L58.395,8.92L61.344,13.639L62.523,17.178L63.113,21.307L63.113,26.615L60.754,34.283L56.625,39.592L51.906,43.131L43.059,47.26L40.699,47.85L36.57,47.85L36.57,49.029L39.52,50.209L47.188,56.697L54.855,64.365L62.523,74.393L67.832,82.65L73.73,92.678L77.859,96.217L77.859,97.986L56.625,97.986L57.215,95.627L58.395,94.447L57.805,90.908L52.496,79.701L46.598,70.854L41.879,64.955L36.57,59.057L31.262,54.338L24.773,50.799L20.645,49.619L20.645,42.541L33.621,40.771L41.289,37.822L46.598,34.283L49.547,29.564L50.137,27.205L50.137,21.307L48.367,17.178L46.008,14.229L39.52,11.279L33.031,10.1L18.875,10.1L17.105,11.279L17.105,90.908L19.465,94.447L21.234,96.217L21.234,97.986L0,97.986L0.59,95.627L3.539,92.088L4.129,89.729L4.129,7.74L2.359,4.201L2.359,3.021L0,1.842L0,0.072Z" style="fill:white;fill-rule:nonzero;"/>
    </g>
    <g transform="matrix(1,0,0,1,212.934,52.4961)">
        <path d="M0,0.072L65.473,0.072L69.602,10.689L69.012,13.639L66.652,12.459L64.293,10.689L61.344,10.1L16.516,9.51L16.516,39.592L24.184,39.002L58.395,38.412L63.113,34.873L64.883,34.873L64.883,53.748L62.523,53.158L58.984,50.209L56.625,49.619L16.516,49.029L16.516,88.549L60.754,87.959L64.883,86.779L67.242,84.42L70.191,85.01L65.473,97.986L0,97.986L0.59,95.627L3.539,92.088L4.129,89.729L4.129,7.74L2.359,4.201L0,1.842L0,0.072Z" style="fill:white;fill-rule:nonzero;"/>
    </g>
    <g transform="matrix(1,0,0,1,289.023,52.4961)">
        <path d="M0,0.072L23.004,0.072L22.414,2.432L20.645,4.201L21.234,7.15L24.773,12.459L30.082,18.357L35.391,24.846L40.699,30.744L46.008,37.232L48.957,40.182L54.855,33.693L60.164,27.205L66.652,20.127L71.961,13.639L76.09,8.92L78.449,5.381L77.27,3.021L76.09,0.072L96.734,0.072L96.145,2.432L90.836,6.561L85.527,13.049L80.219,18.947L74.91,25.436L60.754,41.951L56.035,47.85L57.215,50.209L92.605,91.498L97.914,96.217L97.324,97.986L74.32,97.986L74.91,95.627L76.68,93.857L76.09,90.318L71.371,83.83L65.473,77.342L60.164,70.854L54.855,64.955L49.547,58.467L48.367,57.877L47.188,60.236L38.93,69.084L34.801,73.803L24.184,85.6L19.465,92.088L20.055,95.037L21.234,96.217L21.234,97.986L0.59,97.986L1.18,95.627L7.668,90.318L12.977,83.83L19.465,76.752L24.773,70.264L31.262,63.186L36.57,56.697L41.879,50.799L40.699,48.439L35.391,41.951L27.723,33.104L6.488,8.33L4.129,5.971L4.129,4.791L1.77,3.611L0,1.842L0,0.072Z" style="fill:white;fill-rule:nonzero;"/>
    </g>
    <g transform="matrix(1,0,0,1,863.531,52.4961)">
        <path d="M0,0.072L5.309,0.072L10.027,9.51L21.234,33.693L31.852,56.697L43.059,80.881L48.957,93.268L51.906,96.217L51.906,97.986L28.902,97.986L28.902,95.627L31.852,92.088L31.852,87.959L23.594,67.904L23.004,67.314L-20.055,67.314L-28.313,87.369L-28.313,92.088L-24.773,96.807L-25.363,97.986L-45.418,97.986L-44.828,95.627L-41.289,90.908L-30.082,66.135L-22.414,49.029L-11.797,25.436L-2.359,4.201L0,0.072ZM1.18,19.537L-2.949,27.795L-9.438,42.541L-15.926,56.697L-15.926,57.877L18.875,57.877L17.105,52.568L7.668,32.514L1.77,19.537L1.18,19.537Z" style="fill:white;fill-rule:nonzero;"/>
    </g>
    <g transform="matrix(1,0,0,1,435.895,52.4961)">
        <path d="M0,0.072L5.309,0.072L10.027,9.51L18.875,28.385L27.723,47.85L37.16,67.904L43.648,82.061L48.957,93.268L51.906,96.217L51.906,97.986L28.313,97.986L28.902,95.627L31.262,94.447L31.852,92.088L31.852,87.369L23.594,67.904L23.594,66.725L-20.055,66.725L-21.824,72.033L-27.723,86.189L-28.313,87.959L-28.313,92.088L-24.773,96.217L-24.773,97.986L-45.418,97.986L-44.828,95.627L-41.879,92.088L-34.211,75.572L-27.133,59.646L-16.516,36.053L-7.078,14.818L-0.59,0.662L0,0.072ZM1.18,19.537L-2.949,28.385L-12.387,49.029L-15.926,57.877L18.875,57.877L17.105,52.568L5.898,28.385L1.77,19.537L1.18,19.537Z" style="fill:white;fill-rule:nonzero;"/>
    </g>
    <g transform="matrix(1,0,0,1,74.9102,52.4961)">
        <path d="M0,0.072L5.309,0.072L12.387,14.818L21.234,34.283L30.082,53.158L38.93,72.623L48.367,92.678L51.906,96.807L51.316,97.986L28.313,97.986L28.902,95.627L31.262,93.268L31.852,88.549L27.133,76.752L23.004,67.314L-20.055,67.314L-28.313,86.779L-28.902,90.908L-27.133,94.447L-25.363,95.627L-25.363,97.986L-45.418,97.986L-46.008,96.807L-42.469,92.678L-34.211,74.982L-24.773,53.748L-13.566,28.975L-4.129,7.74L-0.59,0.662L0,0.072ZM0.59,20.127L-4.129,30.154L-11.797,47.26L-15.926,56.697L-15.926,57.877L18.875,57.877L15.926,50.209L8.848,35.463L2.359,21.307L1.77,20.127L0.59,20.127Z" style="fill:white;fill-rule:nonzero;"/>
    </g>
    <g transform="matrix(1,0,0,1,977.961,88.4766)">
        <path d="M0,0.072L173.414,0.072L173.414,27.795L161.617,27.795L161.027,13.639L159.258,8.92L155.129,5.381L152.18,4.201L146.871,4.201L142.152,6.561L139.203,10.1L138.023,14.229L137.434,27.795L129.766,27.795L129.176,12.459L127.406,8.92L124.457,5.971L120.328,4.201L115.02,4.201L110.891,6.561L107.941,10.1L106.762,12.459L106.172,27.795L98.504,27.795L97.914,13.049L95.555,8.33L92.016,5.381L89.066,4.201L83.758,4.201L80.219,5.971L77.27,8.92L75.5,12.459L74.91,27.795L67.242,27.795L66.652,13.049L64.293,8.33L60.754,5.381L57.805,4.201L52.496,4.201L48.957,5.971L46.008,8.92L44.238,12.459L43.648,27.795L35.98,27.795L35.391,13.639L33.621,8.92L29.492,5.381L26.543,4.201L21.234,4.201L16.516,6.561L13.566,10.1L12.387,13.049L11.797,27.795L0,27.795L0,0.072Z" style="fill:white;fill-rule:nonzero;"/>
    </g>
    <g transform="matrix(1,0,0,1,982.68,46.0078)">
        <path d="M0,0.072L163.977,0.072L163.977,28.385L155.719,28.385L155.129,27.205L154.539,12.459L151.59,7.74L146.871,5.381L139.793,5.381L136.254,7.74L133.895,10.689L132.715,13.639L132.125,28.385L124.457,28.385L123.867,13.049L120.918,8.33L117.969,5.971L116.199,5.381L109.121,5.381L105.582,7.74L102.633,11.279L102.043,13.049L101.453,28.385L93.785,28.385L93.195,14.229L90.836,8.92L85.527,5.381L78.449,5.381L74.32,7.74L71.961,10.689L70.781,13.639L70.191,28.385L62.523,28.385L61.934,13.639L59.574,8.92L56.625,6.561L54.266,5.381L47.188,5.381L43.648,7.74L40.699,11.279L40.109,12.459L39.52,28.385L31.852,28.385L31.262,14.229L29.492,10.1L27.133,7.15L23.594,5.381L16.516,5.381L11.797,8.33L8.848,14.229L8.258,28.385L0,28.385L0,0.072Z" style="fill:white;fill-rule:nonzero;"/>
    </g>
    <g transform="matrix(1,0,0,1,135.664,52.4961)">
        <path d="M0,0.072L20.645,0.072L20.055,2.432L17.695,5.381L16.516,9.51L15.926,88.549L60.164,87.959L64.883,86.779L67.242,84.42L69.602,84.42L69.012,87.959L65.473,97.396L64.883,97.986L0,97.986L-0.59,96.807L2.949,92.678L4.129,87.369L4.129,10.1L2.949,5.381L-0.59,0.662L0,0.072Z" style="fill:white;fill-rule:nonzero;"/>
    </g>
    <g transform="matrix(1,0,0,1,967.344,119.738)">
        <path d="M0,0.072L194.059,0.072L194.648,0.662L194.059,7.15L193.469,7.74L0.59,7.74L-0.59,5.971L0,0.072Z" style="fill:white;fill-rule:nonzero;"/>
    </g>
    <g transform="matrix(1,0,0,1,977.961,35.3906)">
        <path d="M0,0.072L172.824,0.072L173.414,0.662L173.414,7.15L172.824,7.74L0.59,7.74L-0.59,5.381L0,0.072Z" style="fill:white;fill-rule:nonzero;"/>
    </g>
    <g transform="matrix(1,0,0,1,972.652,77.8594)">
        <path d="M0,0.072L184.031,0.072L184.031,7.15L51.906,7.74L0,7.15L-0.59,1.842L0,0.072Z" style="fill:white;fill-rule:nonzero;"/>
    </g>
    <g transform="matrix(1,0,0,1,787.441,52.4961)">
        <path d="M0,0.072L21.234,0.072L19.465,3.021L17.105,7.15L17.105,90.908L18.875,93.857L18.875,95.037L20.645,95.627L21.234,97.396L20.645,97.986L0,97.986L0.59,95.627L2.949,92.678L4.129,88.549L4.129,8.92L2.359,4.201L0,1.842L0,0.072Z" style="fill:white;fill-rule:nonzero;"/>
    </g>
</svg>
